HIERARCHY
ROOT Hips
{
	OFFSET -0.179506 -22.333345 2.821913
	CHANNELS 6 Xposition Yposition Zposition Zrotation Yrotation Xrotation 
	JOINT LeftUpLeg
	{
		OFFSET 6.951974 -9.140623 -0.681533
		CHANNELS 3 Zrotation Yrotation Xrotation
		JOINT LeftLeg
		{
			OFFSET 3.427654 -37.519855 -0.449580
			CHANNELS 3 Zrotation Yrotation Xrotation
			JOINT LeftFoot
			{
				OFFSET -1.359570 -39.796059 -4.369333
				CHANNELS 3 Zrotation Yrotation Xrotation
				JOINT LeftToe
				{
					OFFSET 2.635814 -5.579078 11.928840
					CHANNELS 3 Zrotation Yrotation Xrotation
					End Site
					{
						OFFSET 0.000000 0.000000 0.000000
					}
				}
			}
		}
	}
	JOINT RightUpLeg
	{
		OFFSET -6.767048 -9.052170 -0.431982
		CHANNELS 3 Zrotation Yrotation Xrotation
		JOINT RightLeg
		{
			OFFSET -3.829005 -38.256897 -0.885003
			CHANNELS 3 Zrotation Yrotation Xrotation
			JOINT RightFoot
			{
				OFFSET 1.577377 -39.841461 -4.231180
				CHANNELS 3 Zrotation Yrotation Xrotation
				JOINT RightToe
				{
					OFFSET -2.537174 -4.814398 12.334795
					CHANNELS 3 Zrotation Yrotation Xrotation
					End Site
					{
						OFFSET 0.000000 0.000000 0.000000
					}
				}
			}
		}
	}
	JOINT Spine
	{
		OFFSET -0.253288 10.896323 -2.669631
		CHANNELS 3 Zrotation Yrotation Xrotation
		JOINT Spine1
		{
			OFFSET 0.548704 13.518043 0.109247
			CHANNELS 3 Zrotation Yrotation Xrotation
			JOINT Spine2
			{
				OFFSET 0.145701 5.292222 2.542457
				CHANNELS 3 Zrotation Yrotation Xrotation
				JOINT Neck
				{
					OFFSET -0.277840 21.387037 -4.285703
					CHANNELS 3 Zrotation Yrotation Xrotation
					JOINT Head
					{
						OFFSET 0.515184 6.496960 5.134897
						CHANNELS 3 Zrotation Yrotation Xrotation
						End Site
						{
							OFFSET 0.000000 0.000000 0.000000
						}
					}
				}
				JOINT LeftShoulder
				{
					OFFSET 7.884473 12.174932 -3.408961
					CHANNELS 3 Zrotation Yrotation Xrotation
					JOINT LeftArm
					{
						OFFSET 9.097692 3.046888 -0.886815
						CHANNELS 3 Zrotation Yrotation Xrotation
						JOINT LeftForeArm
						{
							OFFSET 25.961220 -1.277207 -2.745643
							CHANNELS 3 Zrotation Yrotation Xrotation
							JOINT LeftHand
							{
								OFFSET 24.923361 0.898606 -0.117091
								CHANNELS 3 Zrotation Yrotation Xrotation
								End Site
								{
									OFFSET 0.000000 0.000000 0.000000
								}
							}
						}
					}
				}
				JOINT RightShoulder
				{
					OFFSET -8.175920 11.883285 -3.861528
					CHANNELS 3 Zrotation Yrotation Xrotation
					JOINT RightArm
					{
						OFFSET -9.601238 3.255117 -0.914307
						CHANNELS 3 Zrotation Yrotation Xrotation
						JOINT RightForeArm
						{
							OFFSET -25.374195 -1.332924 -2.140099
							CHANNELS 3 Zrotation Yrotation Xrotation
							JOINT RightHand
							{
								OFFSET -25.529810 0.777228 -0.555919
								CHANNELS 3 Zrotation Yrotation Xrotation
								End Site
								{
									OFFSET 0.000000 0.000000 0.000000
								}
							}
						}
					}
				}
			}
		}
	}
}
MOTION
Frames: 7
Frame Time: 0.033333
-25.226072 13.119070 96.725677 177.338278 0.261531 89.086702 0.964151 2.104396 1.616621 0.956058 -0.007577 0.647408 0.303311 12.346796 -3.803471 nan nan nan -2.105056 -1.551105 0.352908 1.868541 0.367935 2.320701 7.941140 -4.869516 0.976964 nan nan nan -1.460452 2.092163 -0.769161 3.629978 -2.245771 5.144545 0.016730 0.353240 -1.623378 1.435775 -2.465284 -0.709443 3.242113 -3.877368 -5.731268 -17.643804 7.153458 -2.177118 -69.040224 -4.365872 21.071949 6.825139 -23.686821 -11.923085 4.297004 -17.779106 -27.441129 17.611682 -2.733501 -2.685522 63.668762 4.461680 13.447130 -8.763502 28.148783 -21.416358 -8.944793 10.816731 -31.754291 
-25.242407 13.160138 96.725159 177.576723 0.416895 89.142609 1.080729 1.914310 1.495392 0.987962 -0.125963 0.757664 0.283670 12.530074 -3.844801 nan nan nan -1.984379 -1.536852 0.434813 1.912223 0.366616 2.150802 7.920251 -5.007885 1.070749 nan nan nan -1.246130 2.210986 -0.771557 3.611461 -2.156723 4.530300 0.195408 0.122208 -1.149067 1.118037 -2.848327 -0.532641 3.333020 -3.625796 -5.808163 -18.062005 6.821749 -2.090095 -68.835838 -4.203384 20.722241 6.908551 -23.820984 -12.278371 4.258712 -17.827061 -27.640193 17.343227 -2.983096 -2.782456 63.194431 3.476943 13.071207 -7.541264 30.478963 -19.548610 -8.367421 11.211326 -31.492711 
-25.218864 13.105902 96.694420 177.827008 0.365749 89.236224 1.084468 1.976432 1.207760 0.891332 -0.140794 0.951379 0.256250 12.274022 -3.938818 nan nan nan -2.075242 -1.587890 0.264517 2.018415 0.175745 2.265635 7.886764 -4.975353 1.009509 nan nan nan -1.152556 2.016809 -0.636862 3.505223 -2.322181 4.488632 0.100699 0.104337 -1.322466 1.188264 -2.678525 -0.680945 3.257418 -3.674354 -5.619522 -17.968410 7.025623 -2.200710 -68.959972 -4.085047 20.617070 7.230683 -23.841621 -12.759740 3.150276 -18.126917 -27.612442 17.234771 -2.907710 -2.665286 63.271130 3.319103 13.305169 -7.330834 31.034842 -19.264643 -7.344610 11.547302 -31.794098 
-25.253477 13.045915 96.694260 178.364815 0.400827 89.396075 1.094702 1.883951 0.735886 0.944456 -0.431127 1.295781 0.188282 12.151061 -4.040768 nan nan nan -2.100093 -1.766430 0.145892 2.152966 -0.050180 2.204804 7.830202 -5.134638 1.094965 nan nan nan -1.139880 2.009868 -0.571922 3.530033 -2.411560 4.020810 0.236019 -0.069777 -1.133356 0.991204 -2.975240 -0.504944 3.434816 -3.537863 -5.631466 -18.168410 6.650893 -1.990425 -68.951097 -4.158669 20.427203 7.409156 -23.732766 -13.165755 2.800966 -18.279993 -27.722678 17.047922 -2.844223 -2.758848 63.279088 3.011338 12.963658 -7.234437 31.086747 -19.113016 -6.860176 11.609986 -31.769900 
-25.142950 13.208838 96.687363 177.814723 0.517482 88.852267 1.282891 1.768229 1.807800 0.979394 -0.272402 0.810466 0.199911 12.466148 -3.909492 nan nan nan -1.773071 -1.622256 0.890224 1.889515 0.396301 2.007019 7.937749 -5.114289 1.147266 nan nan nan -1.027634 2.198673 -0.243030 3.451493 -2.133212 4.040284 0.381103 -0.122833 -0.870914 1.093663 -2.916544 -0.377409 3.189577 -3.436287 -5.877167 -18.049279 6.628326 -2.376436 -69.293992 -3.785366 19.516510 8.137980 -23.601719 -14.359877 -2.112380 -18.367992 -25.209128 17.015730 -2.641890 -2.628977 62.840418 2.496489 14.164776 -3.588646 30.842181 -11.278407 0.762186 11.518892 -25.801639 
-25.094139 13.296562 96.893211 178.736387 0.902819 88.146627 1.939126 2.582146 2.234196 1.377160 -0.054689 1.256684 -6.628777 9.822123 -2.354937 nan nan nan -1.196944 -2.202828 2.286761 1.444068 0.428994 1.336981 9.803630 -5.226879 0.493802 nan nan nan -1.257852 2.117168 -0.126331 4.069292 -2.657976 5.672956 0.569996 0.362136 -2.120126 -0.094025 -4.410723 0.588325 4.330976 -2.926725 -6.586286 -18.672184 5.604307 -0.628875 -69.257989 -5.146899 18.629279 9.296405 -22.745536 -14.008412 -5.863711 -20.319366 -26.247297 18.177439 -4.621221 -1.613981 61.407249 4.203398 11.029536 -2.608034 29.011063 -2.965812 8.601843 12.965316 -13.381825 
-25.070738 13.301844 96.948685 178.710800 0.830810 88.199884 1.871949 2.575678 2.167659 1.434795 0.220140 1.341449 -6.709009 9.646345 -2.510260 nan nan nan -1.304073 -2.140207 2.235092 1.487539 0.439550 1.378229 9.818110 -5.079518 0.416403 nan nan nan -1.387046 2.142491 -0.373055 4.156537 -2.678665 6.100093 0.539933 0.374623 -2.471255 -0.008879 -4.373448 0.668142 4.245640 -3.051529 -6.497288 -18.700009 5.734744 -0.608298 -69.197268 -5.043597 18.659854 9.430573 -22.766266 -13.890952 -6.811002 -20.588994 -25.993279 18.274967 -4.836325 -1.509708 61.463067 4.313922 11.121619 -2.959454 28.887181 -2.849687 8.956993 13.009326 -12.964536 
